# Blender 3.4.1
# www.blender.org
o Tree.002
v 0.265659 -0.117585 -5.571055
v 0.302045 -0.116122 -5.522864
v 0.257507 -0.117587 -5.564900
v 0.293894 -0.116124 -5.516709
v 0.265418 -0.099963 -5.571370
v 0.299323 -0.098804 -5.526464
v 0.257266 -0.099965 -5.565215
v 0.291171 -0.098806 -5.520309
v 0.340813 -0.100630 -5.471515
v 0.332661 -0.100632 -5.465360
v 0.332932 -0.083000 -5.464996
v 0.341084 -0.082998 -5.471151
v 0.381550 -0.120490 -5.421959
v 0.369175 -0.120493 -5.412615
v 0.372136 -0.104007 -5.408689
v 0.384511 -0.104004 -5.418033
v 0.365655 -0.091080 -5.421659
v 0.373807 -0.091078 -5.427814
v 0.368879 -0.112994 -5.433611
v 0.360727 -0.112996 -5.427457
v 0.399529 -0.202420 -5.398173
v 0.387154 -0.202423 -5.388829
v 0.394282 -0.213852 -5.403157
v 0.381789 -0.213754 -5.393972
v 0.434741 -0.217021 -5.351541
v 0.422367 -0.217024 -5.342197
v 0.432872 -0.228946 -5.351254
v 0.420379 -0.228848 -5.342070
v 0.447360 -0.080424 -5.307492
v 0.459735 -0.080421 -5.316836
v 0.442732 -0.069105 -5.315179
v 0.455107 -0.069102 -5.324523
v 0.459162 -0.047883 -5.292662
v 0.471537 -0.047880 -5.302006
v 0.451188 -0.042493 -5.303973
v 0.463563 -0.042490 -5.313316
vn 0.0147 -0.9997 0.0192
vn -0.7981 -0.0002 0.6026
vn -0.0126 0.9998 -0.0163
vn 0.7981 0.0002 -0.6026
vn -0.6024 -0.0225 -0.7979
vn 0.8082 -0.0670 -0.5851
vn -0.1341 0.9750 -0.1773
vn 0.1412 -0.9722 0.1867
vn 0.5775 -0.2858 0.7647
vn 0.6554 -0.0622 -0.7527
vn 0.6912 0.0476 -0.7211
vn -0.8660 0.0635 0.4960
vn 0.8001 -0.0214 -0.5994
vn -0.1527 -0.9673 -0.2025
vn 0.0885 0.9891 0.1176
vn -0.1396 -0.9738 -0.1794
vn 0.5662 0.3420 0.7500
vn -0.7314 0.0372 0.6809
vn -0.5534 -0.3646 -0.7489
vn 0.5894 -0.0904 0.8027
vn 0.7857 -0.0940 -0.6115
vn -0.7696 0.1361 0.6238
vn 0.1459 0.9702 0.1936
vn -0.8140 0.0141 0.5806
vn -0.8153 0.1519 0.5588
vn -0.0995 0.9863 -0.1315
vn 0.1109 -0.9830 0.1466
vn 0.2187 0.9317 0.2899
vn 0.8262 -0.0437 -0.5617
vn 0.5208 -0.5032 0.6896
vn -0.5330 0.4666 -0.7058
vn 0.7606 0.1523 -0.6311
vn 0.7303 -0.0378 -0.6821
vn 0.6958 0.0333 -0.7174
vn -0.8611 0.0338 0.5073
vn -0.8001 0.0214 0.5994
vn -0.8734 -0.0209 0.4866
vn -0.5608 -0.3656 -0.7429
vn 0.6009 -0.0751 0.7958
vn 0.7698 -0.1357 -0.6237
vn -0.7856 0.0944 0.6115
vn -0.8262 0.0437 0.5617
vn -0.8082 0.0670 0.5851
vn 0.8140 -0.0141 -0.5806
s 0
f 2//1 3//1 1//1
f 3//2 8//2 7//2
f 8//3 5//3 7//3
f 6//4 1//4 5//4
f 7//5 1//5 3//5
f 6//4 9//4 2//4
f 16//6 32//6 30//6
f 8//2 10//2 11//2
f 6//7 11//7 12//7
f 2//8 10//8 4//8
f 14//9 16//9 15//9
f 13//10 23//10 19//10
f 19//11 16//11 13//11
f 20//12 15//12 17//12
f 10//2 17//2 11//2
f 9//13 18//13 19//13
f 10//14 19//14 20//14
f 12//15 17//15 18//15
f 24//16 27//16 28//16
f 14//17 21//17 13//17
f 14//18 24//18 22//18
f 20//19 23//19 24//19
f 27//20 26//20 28//20
f 21//21 27//21 23//21
f 22//22 28//22 26//22
f 22//23 25//23 21//23
f 31//24 33//24 35//24
f 15//25 31//25 17//25
f 18//26 31//26 32//26
f 15//27 30//27 29//27
f 35//28 34//28 36//28
f 32//29 34//29 30//29
f 30//30 33//30 29//30
f 32//31 35//31 36//31
f 2//1 4//1 3//1
f 3//2 4//2 8//2
f 8//3 6//3 5//3
f 6//4 2//4 1//4
f 7//5 5//5 1//5
f 6//4 12//4 9//4
f 16//32 18//32 32//32
f 8//2 4//2 10//2
f 6//7 8//7 11//7
f 2//8 9//8 10//8
f 14//9 13//9 16//9
f 13//33 21//33 23//33
f 19//34 18//34 16//34
f 20//35 14//35 15//35
f 10//36 20//36 17//36
f 9//4 12//4 18//4
f 10//14 9//14 19//14
f 12//15 11//15 17//15
f 24//16 23//16 27//16
f 14//17 22//17 21//17
f 14//37 20//37 24//37
f 20//38 19//38 23//38
f 27//39 25//39 26//39
f 21//40 25//40 27//40
f 22//41 24//41 28//41
f 22//23 26//23 25//23
f 31//42 29//42 33//42
f 15//43 29//43 31//43
f 18//26 17//26 31//26
f 15//27 16//27 30//27
f 35//28 33//28 34//28
f 32//44 36//44 34//44
f 30//30 34//30 33//30
f 32//31 31//31 35//31
