# Blender 3.4.1
# www.blender.org
o Tree.001
v 0.237999 0.781716 -6.106362
v 0.259615 0.838011 -6.109843
v 0.238080 0.781055 -6.116555
v 0.259696 0.837350 -6.120035
v 0.254469 0.775458 -6.105827
v 0.274419 0.827983 -6.109076
v 0.254549 0.774797 -6.116019
v 0.274499 0.827322 -6.119268
v 0.295774 0.893340 -6.113145
v 0.295854 0.892679 -6.123338
v 0.312618 0.887218 -6.122851
v 0.312538 0.887879 -6.112659
v 0.298523 0.960418 -6.114822
v 0.298645 0.959414 -6.130295
v 0.315825 0.958532 -6.130103
v 0.315703 0.959536 -6.114630
v 0.323205 0.940981 -6.126255
v 0.323125 0.941642 -6.116062
v 0.299935 0.941789 -6.116699
v 0.300015 0.941128 -6.126892
v 0.231327 1.015818 -6.118945
v 0.231449 1.014814 -6.134418
v 0.218173 1.012845 -6.120045
v 0.218324 1.011622 -6.135502
v 0.237154 1.075643 -6.122779
v 0.237276 1.074639 -6.138252
v 0.225631 1.078673 -6.124737
v 0.225782 1.077449 -6.140194
v 0.380309 1.069165 -6.137712
v 0.380187 1.070169 -6.122238
v 0.387975 1.057055 -6.135922
v 0.387853 1.058058 -6.120450
v 0.417313 1.076146 -6.137383
v 0.417191 1.077150 -6.121910
v 0.417752 1.061369 -6.135967
v 0.417630 1.062372 -6.120494
vn -0.9337 0.3566 -0.0305
vn 0.0079 -0.0647 -0.9979
vn 0.9350 -0.3533 0.0303
vn -0.0079 0.0647 0.9979
vn -0.3562 -0.9326 0.0577
vn -0.0644 0.1058 0.9923
vn 0.8440 -0.5347 0.0413
vn -0.8375 0.5448 -0.0419
vn 0.0519 0.9966 -0.0642
vn -0.1354 -0.1095 0.9847
vn -0.0164 -0.1015 0.9947
vn 0.0256 -0.2038 -0.9787
vn -0.0269 0.0754 0.9968
vn -0.9963 0.0846 -0.0133
vn 0.9812 -0.1919 0.0202
vn -0.9936 0.1113 -0.0185
vn 0.6371 0.7695 -0.0449
vn 0.0775 0.0198 -0.9968
vn -0.6556 -0.7532 0.0532
vn 0.2486 0.9658 -0.0740
vn -0.1014 0.0822 0.9914
vn 0.1476 -0.0776 -0.9860
vn 0.9953 -0.0960 0.0141
vn 0.0123 -0.0950 -0.9954
vn 0.1359 -0.1573 -0.9782
vn 0.8740 -0.4845 0.0383
vn -0.8645 0.5012 -0.0393
vn 0.9995 0.0303 0.0059
vn -0.0325 0.1258 0.9915
vn -0.1844 0.9807 -0.0651
vn 0.1432 -0.9875 0.0652
vn 0.1204 -0.0295 0.9923
vn -0.0785 -0.0211 0.9967
vn -0.0279 -0.0913 0.9954
vn 0.0016 -0.1829 -0.9831
vn 0.0269 -0.0754 -0.9968
vn -0.0579 -0.1869 -0.9807
vn -0.6564 -0.7532 0.0437
vn 0.2634 0.9628 -0.0604
vn -0.1472 0.0775 0.9861
vn 0.1018 -0.0822 -0.9914
vn 0.0325 -0.1258 -0.9915
vn 0.0644 -0.1058 -0.9923
vn -0.0123 0.0950 0.9954
s 0
f 2//1 3//1 1//1
f 3//2 8//2 7//2
f 8//3 5//3 7//3
f 6//4 1//4 5//4
f 7//5 1//5 3//5
f 6//4 9//4 2//4
f 16//6 32//6 30//6
f 8//2 10//2 11//2
f 6//7 11//7 12//7
f 2//8 10//8 4//8
f 14//9 16//9 15//9
f 13//10 23//10 19//10
f 19//11 16//11 13//11
f 20//12 15//12 17//12
f 10//2 17//2 11//2
f 9//13 18//13 19//13
f 10//14 19//14 20//14
f 12//15 17//15 18//15
f 24//16 27//16 28//16
f 14//17 21//17 13//17
f 14//18 24//18 22//18
f 20//19 23//19 24//19
f 27//20 26//20 28//20
f 21//21 27//21 23//21
f 22//22 28//22 26//22
f 22//23 25//23 21//23
f 31//24 33//24 35//24
f 15//25 31//25 17//25
f 18//26 31//26 32//26
f 15//27 30//27 29//27
f 35//28 34//28 36//28
f 32//29 34//29 30//29
f 30//30 33//30 29//30
f 32//31 35//31 36//31
f 2//1 4//1 3//1
f 3//2 4//2 8//2
f 8//3 6//3 5//3
f 6//4 2//4 1//4
f 7//5 5//5 1//5
f 6//4 12//4 9//4
f 16//32 18//32 32//32
f 8//2 4//2 10//2
f 6//7 8//7 11//7
f 2//8 9//8 10//8
f 14//9 13//9 16//9
f 13//33 21//33 23//33
f 19//34 18//34 16//34
f 20//35 14//35 15//35
f 10//36 20//36 17//36
f 9//4 12//4 18//4
f 10//14 9//14 19//14
f 12//15 11//15 17//15
f 24//16 23//16 27//16
f 14//17 22//17 21//17
f 14//37 20//37 24//37
f 20//38 19//38 23//38
f 27//39 25//39 26//39
f 21//40 25//40 27//40
f 22//41 24//41 28//41
f 22//23 26//23 25//23
f 31//42 29//42 33//42
f 15//43 29//43 31//43
f 18//26 17//26 31//26
f 15//27 16//27 30//27
f 35//28 33//28 34//28
f 32//44 36//44 34//44
f 30//30 34//30 33//30
f 32//31 31//31 35//31
