# Blender 3.4.1
# www.blender.org
o Cloud
v -1.194183 0.004463 -6.230840
v -1.156660 0.017229 -6.208953
v -1.194593 0.008675 -6.185761
v -1.229625 0.023661 -6.210218
v -1.213342 0.041478 -6.248526
v -1.168247 0.037502 -6.247743
v -1.168912 0.044318 -6.174805
v -1.214007 0.048293 -6.175587
v -1.225594 0.068566 -6.214377
v -1.187661 0.077120 -6.237569
v -1.152629 0.062134 -6.213112
v -1.188071 0.081333 -6.192491
v -1.476463 -0.141076 -6.222582
v -1.367457 -0.103989 -6.159000
v -1.477655 -0.128839 -6.091627
v -1.579425 -0.085303 -6.162676
v -1.532121 -0.033545 -6.273960
v -1.401119 -0.045095 -6.271687
v -1.403050 -0.025295 -6.059797
v -1.534053 -0.013745 -6.062070
v -1.567714 0.045149 -6.174757
v -1.457516 0.069999 -6.242130
v -1.355746 0.026462 -6.171081
v -1.458709 0.082235 -6.111175
v -1.347517 -0.137405 -6.259181
v -1.262878 -0.108608 -6.209812
v -1.348443 -0.127903 -6.157500
v -1.427464 -0.094099 -6.212667
v -1.390734 -0.053911 -6.299075
v -1.289015 -0.062879 -6.297310
v -1.290514 -0.047505 -6.132785
v -1.392234 -0.038537 -6.134550
v -1.418371 0.007193 -6.222047
v -1.332806 0.026488 -6.274360
v -1.253785 -0.007317 -6.219193
v -1.333732 0.035989 -6.172678
v -1.633951 -0.126174 -6.167749
v -1.563159 -0.102089 -6.126457
v -1.634725 -0.118227 -6.082703
v -1.700818 -0.089953 -6.128844
v -1.670097 -0.056340 -6.201116
v -1.585020 -0.063841 -6.199640
v -1.586274 -0.050982 -6.062031
v -1.671352 -0.043481 -6.063508
v -1.693213 -0.005234 -6.136690
v -1.621646 0.010905 -6.180444
v -1.555553 -0.017369 -6.134303
v -1.622421 0.018852 -6.095398
vn 0.2722 -0.9578 0.0920
vn 0.5289 -0.6770 -0.5118
vn -0.4386 -0.8952 0.0797
vn -0.6212 -0.5756 -0.5318
vn -0.0233 -0.4408 -0.8973
vn 0.9337 -0.1152 -0.3391
vn 0.5184 -0.5696 0.6378
vn -0.6317 -0.4682 0.6179
vn -0.9272 0.0488 -0.3714
vn 0.0402 0.2670 -0.9629
vn 0.9272 -0.0488 0.3714
vn -0.0402 -0.2670 0.9629
vn -0.9337 0.1152 0.3391
vn -0.5184 0.5696 -0.6378
vn 0.6317 0.4682 -0.6179
vn 0.6212 0.5756 0.5318
vn 0.0233 0.4408 0.8973
vn -0.5289 0.6770 0.5118
vn -0.2722 0.9578 -0.0920
vn 0.4386 0.8952 -0.0797
s 0
f 1//1 2//1 3//1
f 2//2 1//2 6//2
f 1//3 3//3 4//3
f 1//4 4//4 5//4
f 1//5 5//5 6//5
f 2//6 6//6 11//6
f 3//7 2//7 7//7
f 4//8 3//8 8//8
f 5//9 4//9 9//9
f 6//10 5//10 10//10
f 2//11 11//11 7//11
f 3//12 7//12 8//12
f 4//13 8//13 9//13
f 5//14 9//14 10//14
f 6//15 10//15 11//15
f 7//16 11//16 12//16
f 8//17 7//17 12//17
f 9//18 8//18 12//18
f 10//19 9//19 12//19
f 11//20 10//20 12//20
f 13//1 14//1 15//1
f 14//2 13//2 18//2
f 13//3 15//3 16//3
f 13//4 16//4 17//4
f 13//5 17//5 18//5
f 14//6 18//6 23//6
f 15//7 14//7 19//7
f 16//8 15//8 20//8
f 17//9 16//9 21//9
f 18//10 17//10 22//10
f 14//11 23//11 19//11
f 15//12 19//12 20//12
f 16//13 20//13 21//13
f 17//14 21//14 22//14
f 18//15 22//15 23//15
f 19//16 23//16 24//16
f 20//17 19//17 24//17
f 21//18 20//18 24//18
f 22//19 21//19 24//19
f 23//20 22//20 24//20
f 25//1 26//1 27//1
f 26//2 25//2 30//2
f 25//3 27//3 28//3
f 25//4 28//4 29//4
f 25//5 29//5 30//5
f 26//6 30//6 35//6
f 27//7 26//7 31//7
f 28//8 27//8 32//8
f 29//9 28//9 33//9
f 30//10 29//10 34//10
f 26//11 35//11 31//11
f 27//12 31//12 32//12
f 28//13 32//13 33//13
f 29//14 33//14 34//14
f 30//15 34//15 35//15
f 31//16 35//16 36//16
f 32//17 31//17 36//17
f 33//18 32//18 36//18
f 34//19 33//19 36//19
f 35//20 34//20 36//20
f 37//1 38//1 39//1
f 38//2 37//2 42//2
f 37//3 39//3 40//3
f 37//4 40//4 41//4
f 37//5 41//5 42//5
f 38//6 42//6 47//6
f 39//7 38//7 43//7
f 40//8 39//8 44//8
f 41//9 40//9 45//9
f 42//10 41//10 46//10
f 38//11 47//11 43//11
f 39//12 43//12 44//12
f 40//13 44//13 45//13
f 41//14 45//14 46//14
f 42//15 46//15 47//15
f 43//16 47//16 48//16
f 44//17 43//17 48//17
f 45//18 44//18 48//18
f 46//19 45//19 48//19
f 47//20 46//20 48//20
