# Blender 3.4.1
# www.blender.org
o Cloud.001
v 0.759005 0.883299 -6.251599
v 0.784912 0.885130 -6.251453
v 0.772059 0.881021 -6.229261
v 0.750029 0.894752 -6.230085
v 0.749266 0.907348 -6.252786
v 0.770826 0.901401 -6.265992
v 0.791948 0.897714 -6.229849
v 0.770389 0.903661 -6.216643
v 0.756302 0.919932 -6.231182
v 0.769155 0.924041 -6.253374
v 0.791186 0.910310 -6.252551
v 0.782209 0.921763 -6.231037
v 0.606904 0.823996 -6.170596
v 0.682167 0.829315 -6.170174
v 0.644828 0.817377 -6.105705
v 0.580828 0.857267 -6.108098
v 0.578613 0.893858 -6.174046
v 0.641244 0.876582 -6.212410
v 0.702606 0.865872 -6.107414
v 0.639975 0.883148 -6.069049
v 0.599052 0.930415 -6.111286
v 0.636390 0.942353 -6.175755
v 0.700391 0.902463 -6.173362
v 0.674315 0.935734 -6.110863
v 0.659418 0.819408 -6.226612
v 0.717857 0.823537 -6.226284
v 0.688865 0.814268 -6.176226
v 0.639171 0.845241 -6.178083
v 0.637451 0.873653 -6.229290
v 0.686082 0.860239 -6.259079
v 0.733727 0.851923 -6.177553
v 0.685097 0.865337 -6.147764
v 0.653322 0.902039 -6.180559
v 0.682314 0.911308 -6.230617
v 0.732008 0.880335 -6.228759
v 0.711760 0.906169 -6.180231
v 0.548001 0.839377 -6.096313
v 0.596879 0.842831 -6.096039
v 0.572631 0.835078 -6.054171
v 0.531067 0.860984 -6.055724
v 0.529628 0.884747 -6.098554
v 0.570303 0.873528 -6.123469
v 0.610153 0.866573 -6.055280
v 0.569479 0.877792 -6.030365
v 0.542902 0.908489 -6.057795
v 0.567151 0.916242 -6.099663
v 0.608715 0.890336 -6.098109
v 0.591780 0.911943 -6.057520
vn 0.0706 -0.9874 -0.1420
vn 0.0496 -0.6413 -0.7657
vn -0.5218 -0.8240 0.2209
vn -0.9089 -0.3769 -0.1786
vn -0.5557 -0.2640 -0.7884
vn 0.5961 -0.1826 -0.7819
vn 0.6300 -0.7426 0.2274
vn -0.3285 -0.4782 0.8145
vn -0.9548 0.2452 0.1681
vn -0.3834 0.4279 -0.8185
vn 0.9548 -0.2452 -0.1681
vn 0.3834 -0.4279 0.8185
vn -0.5961 0.1826 0.7819
vn -0.6300 0.7426 -0.2274
vn 0.3285 0.4782 -0.8145
vn 0.9089 0.3769 0.1786
vn 0.5557 0.2640 0.7884
vn -0.0496 0.6413 0.7657
vn -0.0706 0.9874 0.1420
vn 0.5218 0.8240 -0.2209
s 0
f 1//1 2//1 3//1
f 2//2 1//2 6//2
f 1//3 3//3 4//3
f 1//4 4//4 5//4
f 1//5 5//5 6//5
f 2//6 6//6 11//6
f 3//7 2//7 7//7
f 4//8 3//8 8//8
f 5//9 4//9 9//9
f 6//10 5//10 10//10
f 2//11 11//11 7//11
f 3//12 7//12 8//12
f 4//13 8//13 9//13
f 5//14 9//14 10//14
f 6//15 10//15 11//15
f 7//16 11//16 12//16
f 8//17 7//17 12//17
f 9//18 8//18 12//18
f 10//19 9//19 12//19
f 11//20 10//20 12//20
f 13//1 14//1 15//1
f 14//2 13//2 18//2
f 13//3 15//3 16//3
f 13//4 16//4 17//4
f 13//5 17//5 18//5
f 14//6 18//6 23//6
f 15//7 14//7 19//7
f 16//8 15//8 20//8
f 17//9 16//9 21//9
f 18//10 17//10 22//10
f 14//11 23//11 19//11
f 15//12 19//12 20//12
f 16//13 20//13 21//13
f 17//14 21//14 22//14
f 18//15 22//15 23//15
f 19//16 23//16 24//16
f 20//17 19//17 24//17
f 21//18 20//18 24//18
f 22//19 21//19 24//19
f 23//20 22//20 24//20
f 25//1 26//1 27//1
f 26//2 25//2 30//2
f 25//3 27//3 28//3
f 25//4 28//4 29//4
f 25//5 29//5 30//5
f 26//6 30//6 35//6
f 27//7 26//7 31//7
f 28//8 27//8 32//8
f 29//9 28//9 33//9
f 30//10 29//10 34//10
f 26//11 35//11 31//11
f 27//12 31//12 32//12
f 28//13 32//13 33//13
f 29//14 33//14 34//14
f 30//15 34//15 35//15
f 31//16 35//16 36//16
f 32//17 31//17 36//17
f 33//18 32//18 36//18
f 34//19 33//19 36//19
f 35//20 34//20 36//20
f 37//1 38//1 39//1
f 38//2 37//2 42//2
f 37//3 39//3 40//3
f 37//4 40//4 41//4
f 37//5 41//5 42//5
f 38//6 42//6 47//6
f 39//7 38//7 43//7
f 40//8 39//8 44//8
f 41//9 40//9 45//9
f 42//10 41//10 46//10
f 38//11 47//11 43//11
f 39//12 43//12 44//12
f 40//13 44//13 45//13
f 41//14 45//14 46//14
f 42//15 46//15 47//15
f 43//16 47//16 48//16
f 44//17 43//17 48//17
f 45//18 44//18 48//18
f 46//19 45//19 48//19
f 47//20 46//20 48//20
