# Blender 3.4.1
# www.blender.org
o Leaves.002
v 0.420951 -0.218901 -5.383042
v 0.452875 -0.203789 -5.365947
v 0.450106 -0.242525 -5.371569
v 0.412792 -0.253026 -5.365472
v 0.417273 -0.190350 -5.356377
v 0.464447 -0.228574 -5.337812
v 0.439674 -0.259004 -5.337519
v 0.404072 -0.245565 -5.327949
v 0.406841 -0.206829 -5.322327
v 0.444154 -0.196328 -5.328423
v 0.435996 -0.230453 -5.310853
v 0.454299 -0.084272 -5.334932
v 0.476113 -0.051867 -5.331221
v 0.488820 -0.085881 -5.316346
v 0.457831 -0.105118 -5.301876
v 0.437272 -0.050081 -5.325945
v 0.493128 -0.052685 -5.295871
v 0.481828 -0.085596 -5.277734
v 0.442986 -0.083810 -5.272458
v 0.430280 -0.049796 -5.287333
v 0.461269 -0.030559 -5.301804
v 0.464801 -0.051405 -5.268747
v 0.392623 -0.176543 -5.403948
v 0.402415 -0.162502 -5.402032
v 0.407763 -0.177646 -5.395807
v 0.394031 -0.186009 -5.389626
v 0.385378 -0.161505 -5.399698
v 0.409875 -0.163290 -5.386526
v 0.404693 -0.177818 -5.378859
v 0.387656 -0.176820 -5.376524
v 0.382308 -0.161676 -5.382750
v 0.396040 -0.153313 -5.388931
v 0.397448 -0.162779 -5.374609
v 0.418108 -0.117408 -5.370176
v 0.427900 -0.103367 -5.368261
v 0.433248 -0.118511 -5.362036
v 0.419516 -0.126873 -5.355854
v 0.410864 -0.102369 -5.365927
v 0.435360 -0.104154 -5.352755
v 0.430179 -0.118682 -5.345087
v 0.413142 -0.117684 -5.342752
v 0.407794 -0.102540 -5.348978
v 0.421526 -0.094178 -5.355160
v 0.422934 -0.103643 -5.340837
v 0.386859 -0.075662 -5.411551
v 0.396651 -0.061621 -5.409636
v 0.401999 -0.076765 -5.403410
v 0.388267 -0.085128 -5.397229
v 0.379614 -0.060624 -5.407301
v 0.404111 -0.062409 -5.394129
v 0.398929 -0.076937 -5.386462
v 0.381892 -0.075939 -5.384128
v 0.376544 -0.060795 -5.390353
v 0.390276 -0.052433 -5.396534
v 0.391684 -0.061898 -5.382212
vn 0.4329 0.0991 -0.8960
vn 0.0638 0.6855 -0.7252
vn -0.0176 -0.4543 -0.8907
vn 0.3246 0.9393 -0.1113
vn 0.9218 -0.0096 -0.3876
vn 0.1928 -0.9051 -0.3790
vn 0.8549 0.5096 0.0973
vn 0.7734 -0.6303 -0.0681
vn -0.3246 -0.9393 0.1113
vn -0.1928 0.9051 0.3790
vn 0.6652 0.2099 0.7166
vn 0.6148 -0.4946 0.6144
vn -0.0638 -0.6855 0.7252
vn -0.4329 -0.0991 0.8960
vn 0.0176 0.4543 0.8907
vn 0.4562 -0.2080 -0.8652
vn -0.1233 0.1944 -0.9731
vn 0.2507 -0.8065 -0.5354
vn -0.0449 0.7981 -0.6008
vn 0.8926 0.1471 -0.4262
vn 0.5601 -0.8214 0.1075
vn 0.5829 0.7689 -0.2628
vn 0.9568 -0.2321 0.1750
vn 0.0449 -0.7981 0.6008
vn -0.5601 0.8214 -0.1075
vn 0.4558 0.7741 0.4394
vn 0.6868 0.1554 0.7100
vn 0.1233 -0.1944 0.9731
vn -0.4562 0.2080 0.8652
vn -0.2507 0.8065 0.5354
vn 0.4531 -0.1974 -0.8694
vn -0.1201 0.2160 -0.9690
vn 0.2384 -0.7993 -0.5517
vn -0.0326 0.8107 -0.5845
vn 0.8948 0.1420 -0.4233
vn 0.5475 -0.8319 0.0907
vn 0.5947 0.7650 -0.2472
vn 0.9531 -0.2502 0.1701
vn 0.0326 -0.8107 0.5845
vn -0.5475 0.8319 -0.0907
vn 0.4675 0.7579 0.4550
vn 0.6890 0.1305 0.7129
vn 0.1201 -0.2159 0.9690
vn -0.4531 0.1974 0.8694
vn -0.2384 0.7993 0.5517
s 0
f 1//1 2//1 3//1
f 2//2 1//2 5//2
f 1//3 3//3 4//3
f 2//4 5//4 10//4
f 3//5 2//5 6//5
f 4//6 3//6 7//6
f 2//7 10//7 6//7
f 3//8 6//8 7//8
f 4//9 7//9 8//9
f 5//10 9//10 10//10
f 6//11 10//11 11//11
f 7//12 6//12 11//12
f 8//13 7//13 11//13
f 9//14 8//14 11//14
f 10//15 9//15 11//15
f 12//16 13//16 14//16
f 13//17 12//17 16//17
f 12//18 14//18 15//18
f 13//19 16//19 21//19
f 14//20 13//20 17//20
f 15//21 14//21 18//21
f 13//22 21//22 17//22
f 14//23 17//23 18//23
f 15//24 18//24 19//24
f 16//25 20//25 21//25
f 17//26 21//26 22//26
f 18//27 17//27 22//27
f 19//28 18//28 22//28
f 20//29 19//29 22//29
f 21//30 20//30 22//30
f 23//31 24//31 25//31
f 24//32 23//32 27//32
f 23//33 25//33 26//33
f 24//34 27//34 32//34
f 25//35 24//35 28//35
f 26//36 25//36 29//36
f 24//37 32//37 28//37
f 25//38 28//38 29//38
f 26//39 29//39 30//39
f 27//40 31//40 32//40
f 28//41 32//41 33//41
f 29//42 28//42 33//42
f 30//43 29//43 33//43
f 31//44 30//44 33//44
f 32//45 31//45 33//45
f 34//31 35//31 36//31
f 35//32 34//32 38//32
f 34//33 36//33 37//33
f 35//34 38//34 43//34
f 36//35 35//35 39//35
f 37//36 36//36 40//36
f 35//37 43//37 39//37
f 36//38 39//38 40//38
f 37//39 40//39 41//39
f 38//40 42//40 43//40
f 39//41 43//41 44//41
f 40//42 39//42 44//42
f 41//43 40//43 44//43
f 42//44 41//44 44//44
f 43//45 42//45 44//45
f 45//31 46//31 47//31
f 46//32 45//32 49//32
f 45//33 47//33 48//33
f 46//34 49//34 54//34
f 47//35 46//35 50//35
f 48//36 47//36 51//36
f 46//37 54//37 50//37
f 47//38 50//38 51//38
f 48//39 51//39 52//39
f 49//40 53//40 54//40
f 50//41 54//41 55//41
f 51//42 50//42 55//42
f 52//43 51//43 55//43
f 53//44 52//44 55//44
f 54//45 53//45 55//45
