# Blender 3.4.1
# www.blender.org
o Leaves.001
v 0.224108 1.045332 -6.112923
v 0.249243 1.072187 -6.099255
v 0.210676 1.079412 -6.098855
v 0.195147 1.064183 -6.131515
v 0.257549 1.052494 -6.132163
v 0.235816 1.107636 -6.109399
v 0.202383 1.102689 -6.129337
v 0.210689 1.082996 -6.162244
v 0.249256 1.075771 -6.162645
v 0.264785 1.090999 -6.129985
v 0.235824 1.109850 -6.148576
v 0.370568 1.055220 -6.114765
v 0.406374 1.060526 -6.099616
v 0.380863 1.090325 -6.100576
v 0.360620 1.087883 -6.134103
v 0.401899 1.039666 -6.132548
v 0.418556 1.096470 -6.109590
v 0.390278 1.113376 -6.130904
v 0.385803 1.092516 -6.163836
v 0.411314 1.062717 -6.162876
v 0.431557 1.065160 -6.129350
v 0.421609 1.097823 -6.148687
v 0.252783 0.998797 -6.119703
v 0.268448 1.001526 -6.113079
v 0.256921 1.014319 -6.113484
v 0.248041 1.013018 -6.128187
v 0.266692 0.992319 -6.127531
v 0.273387 1.017433 -6.117469
v 0.260774 1.024536 -6.126806
v 0.259019 1.015329 -6.141258
v 0.270546 1.002536 -6.140852
v 0.279426 1.003836 -6.126150
v 0.274683 1.018057 -6.134634
v 0.322676 1.018834 -6.120451
v 0.338341 1.021562 -6.113827
v 0.326814 1.034355 -6.114233
v 0.317934 1.033055 -6.128935
v 0.336585 1.012355 -6.128279
v 0.343280 1.037469 -6.118217
v 0.330668 1.044572 -6.127554
v 0.328912 1.035365 -6.142006
v 0.340439 1.022572 -6.141600
v 0.349319 1.023872 -6.126898
v 0.344577 1.038094 -6.135382
v 0.344629 0.956134 -6.116212
v 0.360294 0.958863 -6.109588
v 0.348767 0.971656 -6.109993
v 0.339887 0.970356 -6.124696
v 0.358538 0.949656 -6.124039
v 0.365233 0.974770 -6.113978
v 0.352620 0.981873 -6.123315
v 0.350865 0.972666 -6.137766
v 0.362392 0.959873 -6.137361
v 0.371272 0.961173 -6.122659
v 0.366529 0.975394 -6.131143
vn -0.0660 -0.4029 0.9129
vn 0.4609 -0.7054 0.5385
vn -0.6740 -0.4928 0.5503
vn 0.9181 -0.1921 0.3467
vn 0.0656 0.2974 0.9525
vn -0.9182 0.1519 0.3658
vn 0.6738 0.4277 0.6026
vn -0.4611 0.6403 0.6144
vn -0.9181 0.1921 -0.3467
vn 0.9182 -0.1519 -0.3658
vn 0.5230 0.8510 0.0482
vn -0.1784 0.9824 0.0555
vn -0.4609 0.7054 -0.5385
vn 0.0660 0.4029 -0.9129
vn 0.6740 0.4928 -0.5503
vn -0.3424 -0.2640 0.9017
vn -0.1059 -0.8335 0.5423
vn -0.8567 0.0434 0.5141
vn 0.5796 -0.7217 0.3784
vn 0.1970 0.1996 0.9599
vn -0.6351 0.6971 0.3327
vn 0.7668 -0.0833 0.6365
vn 0.0161 0.7936 0.6082
vn -0.5796 0.7217 -0.3784
vn 0.6351 -0.6971 -0.3327
vn 0.9380 0.3360 0.0849
vn 0.4741 0.8779 0.0674
vn 0.1059 0.8335 -0.5423
vn 0.3424 0.2640 -0.9017
vn 0.8567 -0.0434 -0.5141
vn -0.3341 -0.2724 0.9023
vn -0.0839 -0.8358 0.5426
vn -0.8566 0.0218 0.5155
vn 0.5983 -0.7067 0.3776
vn 0.1935 0.2047 0.9595
vn -0.6520 0.6809 0.3336
vn 0.7697 -0.0637 0.6352
vn -0.0030 0.7939 0.6080
vn -0.5983 0.7067 -0.3776
vn 0.6520 -0.6809 -0.3336
vn 0.9294 0.3596 0.0833
vn 0.4518 0.8896 0.0665
vn 0.0839 0.8358 -0.5426
vn 0.3341 0.2724 -0.9023
vn 0.8566 -0.0218 -0.5155
s 0
f 1//1 2//1 3//1
f 2//2 1//2 5//2
f 1//3 3//3 4//3
f 2//4 5//4 10//4
f 3//5 2//5 6//5
f 4//6 3//6 7//6
f 2//7 10//7 6//7
f 3//8 6//8 7//8
f 4//9 7//9 8//9
f 5//10 9//10 10//10
f 6//11 10//11 11//11
f 7//12 6//12 11//12
f 8//13 7//13 11//13
f 9//14 8//14 11//14
f 10//15 9//15 11//15
f 12//16 13//16 14//16
f 13//17 12//17 16//17
f 12//18 14//18 15//18
f 13//19 16//19 21//19
f 14//20 13//20 17//20
f 15//21 14//21 18//21
f 13//22 21//22 17//22
f 14//23 17//23 18//23
f 15//24 18//24 19//24
f 16//25 20//25 21//25
f 17//26 21//26 22//26
f 18//27 17//27 22//27
f 19//28 18//28 22//28
f 20//29 19//29 22//29
f 21//30 20//30 22//30
f 23//31 24//31 25//31
f 24//32 23//32 27//32
f 23//33 25//33 26//33
f 24//34 27//34 32//34
f 25//35 24//35 28//35
f 26//36 25//36 29//36
f 24//37 32//37 28//37
f 25//38 28//38 29//38
f 26//39 29//39 30//39
f 27//40 31//40 32//40
f 28//41 32//41 33//41
f 29//42 28//42 33//42
f 30//43 29//43 33//43
f 31//44 30//44 33//44
f 32//45 31//45 33//45
f 34//31 35//31 36//31
f 35//32 34//32 38//32
f 34//33 36//33 37//33
f 35//34 38//34 43//34
f 36//35 35//35 39//35
f 37//36 36//36 40//36
f 35//37 43//37 39//37
f 36//38 39//38 40//38
f 37//39 40//39 41//39
f 38//40 42//40 43//40
f 39//41 43//41 44//41
f 40//42 39//42 44//42
f 41//43 40//43 44//43
f 42//44 41//44 44//44
f 43//45 42//45 44//45
f 45//31 46//31 47//31
f 46//32 45//32 49//32
f 45//33 47//33 48//33
f 46//34 49//34 54//34
f 47//35 46//35 50//35
f 48//36 47//36 51//36
f 46//37 54//37 50//37
f 47//38 50//38 51//38
f 48//39 51//39 52//39
f 49//40 53//40 54//40
f 50//41 54//41 55//41
f 51//42 50//42 55//42
f 52//43 51//43 55//43
f 53//44 52//44 55//44
f 54//45 53//45 55//45
