# Blender 3.4.1
# www.blender.org
o Mountain
v 0.839176 0.058506 -6.038069
v 0.839176 0.058506 -6.583323
v 0.789213 0.453063 -6.310696
v 0.518679 0.058506 -5.596939
v 0.250436 0.450825 -5.561915
v 0.607260 0.522338 -5.869572
v 0.607260 0.522338 -6.751819
v 0.148026 0.809931 -5.873682
v 0.463930 0.808995 -6.310696
v 0.794281 0.783203 -6.134009
vn 0.4089 0.6620 0.6282
vn 0.7240 0.6617 -0.1947
vn 0.4938 0.7937 0.3553
vn 0.8897 0.3304 -0.3151
vn 0.5781 0.3286 0.7469
vn 0.7947 0.1876 0.5773
vn 0.8897 0.3304 0.3151
vn 0.9921 0.1256 -0.0000
vn -0.7240 -0.6617 -0.1947
vn -0.2518 0.7721 0.5835
vn 0.4541 0.4150 -0.7884
vn 0.8868 -0.2286 0.4017
s 0
f 5//1 6//1 8//1
f 3//2 7//2 9//2
f 8//3 6//3 9//3
f 2//4 7//4 3//4
f 4//5 6//5 5//5
f 4//6 1//6 6//6
f 1//7 3//7 6//7
f 1//8 2//8 3//8
f 6//9 9//9 3//9
f 9//10 6//10 10//10
f 3//11 9//11 10//11
f 6//12 3//12 10//12
