# Blender 3.4.1
# www.blender.org
o Tree
v -0.701779 0.394228 -6.106362
v -0.758977 0.413326 -6.109843
v -0.701122 0.394338 -6.116555
v -0.758320 0.413436 -6.120035
v -0.696257 0.410959 -6.105827
v -0.749615 0.428560 -6.109076
v -0.695601 0.411068 -6.116019
v -0.748958 0.428670 -6.119268
v -0.815855 0.446996 -6.113145
v -0.815198 0.447106 -6.123338
v -0.810485 0.464096 -6.122851
v -0.811142 0.463986 -6.112659
v -0.882988 0.446769 -6.114822
v -0.881991 0.446935 -6.130295
v -0.881872 0.464137 -6.130103
v -0.882869 0.463971 -6.114630
v -0.864665 0.472288 -6.126255
v -0.865322 0.472179 -6.116062
v -0.864440 0.449005 -6.116699
v -0.863784 0.449115 -6.126892
v -0.935354 0.377182 -6.118945
v -0.934357 0.377349 -6.134418
v -0.931801 0.364173 -6.120045
v -0.930586 0.364378 -6.135502
v -0.995379 0.380351 -6.122779
v -0.994382 0.380517 -6.138252
v -0.997895 0.368705 -6.124737
v -0.996680 0.368911 -6.140194
v -0.995255 0.523652 -6.137712
v -0.996252 0.523486 -6.122238
v -0.983496 0.531848 -6.135922
v -0.984493 0.531682 -6.120450
v -1.003870 0.560311 -6.137383
v -1.004867 0.560144 -6.121910
v -0.989126 0.561405 -6.135967
v -0.990123 0.561238 -6.120494
vn -0.3149 -0.9486 -0.0305
vn 0.0643 0.0107 -0.9979
vn 0.3115 0.9498 0.0303
vn -0.0643 -0.0107 0.9979
vn 0.9475 -0.3145 0.0577
vn -0.1028 -0.0690 0.9923
vn 0.4967 0.8669 0.0413
vn -0.5072 -0.8608 -0.0419
vn -0.9979 0.0076 -0.0642
vn 0.1154 -0.1304 0.9847
vn 0.1021 -0.0119 0.9947
vn 0.2025 0.0346 -0.9787
vn -0.0742 -0.0302 0.9968
vn -0.0403 -0.9991 -0.0133
vn 0.1482 0.9887 0.0202
vn -0.0671 -0.9976 -0.0185
vn -0.7969 0.6024 -0.0449
vn -0.0232 0.0765 -0.9968
vn 0.7816 -0.6216 0.0532
vn -0.9758 0.2056 -0.0740
vn -0.0776 -0.1050 0.9914
vn 0.0709 0.1509 -0.9860
vn 0.0518 0.9986 0.0141
vn 0.0943 0.0165 -0.9954
vn 0.1511 0.1427 -0.9782
vn 0.4453 0.8946 0.0383
vn -0.4623 -0.8858 -0.0393
vn -0.0746 0.9972 0.0059
vn -0.1243 -0.0381 0.9915
vn -0.9715 -0.2277 -0.0651
vn 0.9802 0.1868 0.0652
vn 0.0242 0.1216 0.9923
vn 0.0246 -0.0775 0.9967
vn 0.0924 -0.0238 0.9954
vn 0.1826 0.0097 -0.9831
vn 0.0742 0.0302 -0.9968
vn 0.1893 -0.0496 -0.9807
vn 0.7815 -0.6223 0.0437
vn -0.9735 0.2205 -0.0604
vn -0.0709 -0.1505 0.9861
vn 0.0776 0.1054 -0.9914
vn 0.1243 0.0381 -0.9915
vn 0.1028 0.0690 -0.9923
vn -0.0943 -0.0165 0.9954
s 0
f 2//1 3//1 1//1
f 3//2 8//2 7//2
f 8//3 5//3 7//3
f 6//4 1//4 5//4
f 7//5 1//5 3//5
f 6//4 9//4 2//4
f 16//6 32//6 30//6
f 8//2 10//2 11//2
f 6//7 11//7 12//7
f 2//8 10//8 4//8
f 14//9 16//9 15//9
f 13//10 23//10 19//10
f 19//11 16//11 13//11
f 20//12 15//12 17//12
f 10//2 17//2 11//2
f 9//13 18//13 19//13
f 10//14 19//14 20//14
f 12//15 17//15 18//15
f 24//16 27//16 28//16
f 14//17 21//17 13//17
f 14//18 24//18 22//18
f 20//19 23//19 24//19
f 27//20 26//20 28//20
f 21//21 27//21 23//21
f 22//22 28//22 26//22
f 22//23 25//23 21//23
f 31//24 33//24 35//24
f 15//25 31//25 17//25
f 18//26 31//26 32//26
f 15//27 30//27 29//27
f 35//28 34//28 36//28
f 32//29 34//29 30//29
f 30//30 33//30 29//30
f 32//31 35//31 36//31
f 2//1 4//1 3//1
f 3//2 4//2 8//2
f 8//3 6//3 5//3
f 6//4 2//4 1//4
f 7//5 5//5 1//5
f 6//4 12//4 9//4
f 16//32 18//32 32//32
f 8//2 4//2 10//2
f 6//7 8//7 11//7
f 2//8 9//8 10//8
f 14//9 13//9 16//9
f 13//33 21//33 23//33
f 19//34 18//34 16//34
f 20//35 14//35 15//35
f 10//36 20//36 17//36
f 9//4 12//4 18//4
f 10//14 9//14 19//14
f 12//15 11//15 17//15
f 24//16 23//16 27//16
f 14//17 22//17 21//17
f 14//37 20//37 24//37
f 20//38 19//38 23//38
f 27//39 25//39 26//39
f 21//40 25//40 27//40
f 22//41 24//41 28//41
f 22//23 26//23 25//23
f 31//42 29//42 33//42
f 15//43 29//43 31//43
f 18//26 17//26 31//26
f 15//27 16//27 30//27
f 35//28 33//28 34//28
f 32//44 36//44 34//44
f 30//30 34//30 33//30
f 32//31 31//31 35//31
